<svg width="34" height="26" viewBox="0 0 34 26" fill="none" xmlns="http://www.w3.org/2000/svg">
<path d="M8.93985 0L9.28504e-07 8.93985V5.93511L5.93511 0H8.93985ZM23.8148 0L20.7038 3.11099C20.0268 2.7215 19.2924 2.44178 18.5278 2.28224L20.8101 0H23.8148ZM21.5049 6.74261C20.9866 5.91177 20.2481 5.24094 19.3714 4.80465C18.4947 4.36837 17.5142 4.18372 16.5388 4.27124C15.3854 4.37173 14.2963 4.8463 13.4374 5.62273C12.5785 6.39916 11.9968 7.43494 11.7807 8.57243C11.5647 9.70993 11.7262 10.8869 12.2406 11.9241C12.7551 12.9614 13.5943 13.8022 14.6306 14.3186C15.6669 14.8349 16.8435 14.9986 17.9814 14.7847C19.1193 14.5708 20.1562 13.991 20.9342 13.1335C21.7123 12.276 22.1889 11.1879 22.2915 10.0346C22.3941 8.88134 22.1172 7.72611 21.5028 6.74473L21.5049 6.74261ZM23.0349 5.21261C23.4706 5.81398 23.8169 6.48123 24.0549 7.19948L31.2289 0.0276249C31.0908 0.00942839 30.9517 0.00020072 30.8124 0H28.2475L23.0349 5.21261ZM11.6875 17C10.8423 17.0005 10.0318 17.3365 9.43419 17.9342C8.83654 18.5318 8.50054 19.3422 8.49998 20.1874V25.4999H25.4999V20.1874C25.5005 19.7687 25.4184 19.354 25.2584 18.967C25.0984 18.58 24.8637 18.2284 24.5676 17.9323C24.2715 17.6362 23.9199 17.4014 23.5329 17.2414C23.1459 17.0815 22.7312 16.9994 22.3124 17H11.6875ZM22.3124 14.875C22.7736 14.875 23.2198 14.9345 23.6469 15.045L33.9999 4.68774V3.18749C33.9999 2.74337 33.9085 2.32262 33.7449 1.93799L24.1824 11.5026C23.8364 12.7829 23.1541 13.9473 22.2062 14.875H22.3124ZM26.3669 16.7556C26.845 17.3187 27.2063 17.9817 27.4167 18.7106L33.9999 12.1273V9.1226L26.3669 16.7556ZM27.6249 25.4999V22.9351L33.9999 16.5601V19.5648L28.0648 25.4999H27.6249ZM6.37498 24.8773V21.8726L2.77312 25.4744C2.90912 25.4914 3.04937 25.4999 3.18749 25.4999H5.75236L6.37498 24.8773ZM9.71972 11.0925C9.88122 11.8681 10.166 12.6012 10.5485 13.2685L0.255 23.5619C0.0864196 23.167 -0.000327394 22.7419 9.28504e-07 22.3124V20.8101L9.71972 11.0903V11.0925ZM16.3773 0L9.28504e-07 16.3773V13.3726L13.3726 0H16.3773Z" fill="url(#paint0_linear_142_574)"/>
<defs>
<linearGradient id="paint0_linear_142_574" x1="-1" y1="15.5783" x2="34.5" y2="15.5783" gradientUnits="userSpaceOnUse">
<stop stop-color="#FF6355"/>
<stop offset="0.09" stop-color="#FBA949"/>
<stop offset="0.16" stop-color="#FAE442"/>
<stop offset="0.23" stop-color="#8BD448"/>
<stop offset="0.32" stop-color="#2AA8F2"/>
<stop offset="0.54" stop-color="#053F64"/>
</linearGradient>
</defs>
</svg>
