<svg width="51" height="51" viewBox="0 0 51 51" fill="none" xmlns="http://www.w3.org/2000/svg">
<rect width="50.1995" height="50.1995" rx="15" fill="#EB311B"/>
<path d="M25.1 23.0959C23.5312 23.0959 22.0115 23.3356 20.5899 23.7864V26.7595C20.5899 27.1335 20.3644 27.4692 20.0408 27.6226C19.08 28.0926 18.2074 28.6968 17.4328 29.3969C17.2563 29.5695 17.0112 29.6655 16.7465 29.6655C16.4719 29.6655 16.2268 29.56 16.0503 29.3873L13.6188 27.0088C13.4423 26.8458 13.3345 26.606 13.3345 26.3375C13.3345 26.069 13.4423 25.8292 13.6188 25.6566C16.6092 22.8849 20.6487 21.1777 25.1 21.1777C29.5513 21.1777 33.5908 22.8849 36.5812 25.6566C36.7576 25.8292 36.8655 26.069 36.8655 26.3375C36.8655 26.606 36.7576 26.8458 36.5812 27.0184L34.1496 29.3969C33.9731 29.5695 33.728 29.675 33.4535 29.675C33.1888 29.675 32.9437 29.5695 32.7672 29.4065C31.9926 28.6968 31.1102 28.1022 30.1493 27.6322C29.8258 27.4788 29.6003 27.1527 29.6003 26.7691V23.796C28.1884 23.3356 26.6687 23.0959 25.1 23.0959Z" fill="white"/>
</svg>
