<svg width="20" height="20" viewBox="0 0 20 20" fill="none" xmlns="http://www.w3.org/2000/svg">
<circle cx="10" cy="10" r="9.5" stroke="#053F64"/>
<path fill-rule="evenodd" clip-rule="evenodd" d="M6.99544 10.3078C6.99544 11.211 6.26324 11.9432 5.36002 11.9432C4.45681 11.9432 3.72461 11.211 3.72461 10.3078C3.72461 9.40456 4.45681 8.67236 5.36002 8.67236C6.26324 8.67236 6.99544 9.40456 6.99544 10.3078ZM11.5748 10.3078C11.5748 11.211 10.8426 11.9432 9.93935 11.9432C9.03614 11.9432 8.30394 11.211 8.30394 10.3078C8.30394 9.40456 9.03614 8.67236 9.93935 8.67236C10.8426 8.67236 11.5748 9.40456 11.5748 10.3078ZM14.5187 11.9432C15.4219 11.9432 16.1541 11.211 16.1541 10.3078C16.1541 9.40456 15.4219 8.67236 14.5187 8.67236C13.6155 8.67236 12.8833 9.40456 12.8833 10.3078C12.8833 11.211 13.6155 11.9432 14.5187 11.9432Z" fill="#053F64"/>
</svg>
