<svg width="45" height="45" viewBox="0 0 45 45" fill="none" xmlns="http://www.w3.org/2000/svg">
<g filter="url(#filter0_d_3702_2006)">
<path d="M13.75 1.09375C13.75 0.803669 13.6348 0.52547 13.4296 0.320352C13.2245 0.115234 12.9463 0 12.6562 0C12.3662 0 12.088 0.115234 11.8829 0.320352C11.6777 0.52547 11.5625 0.803669 11.5625 1.09375V2.1875H9.375C8.21468 2.1875 7.10188 2.64844 6.28141 3.46891C5.46094 4.28938 5 5.40218 5 6.5625L5 8.75H40V6.5625C40 5.40218 39.5391 4.28938 38.7186 3.46891C37.8981 2.64844 36.7853 2.1875 35.625 2.1875H33.4375V1.09375C33.4375 0.803669 33.3223 0.52547 33.1171 0.320352C32.912 0.115234 32.6338 0 32.3438 0C32.0537 0 31.7755 0.115234 31.5704 0.320352C31.3652 0.52547 31.25 0.803669 31.25 1.09375V2.1875H13.75V1.09375ZM40 30.625V10.9375H5V30.625C5 31.7853 5.46094 32.8981 6.28141 33.7186C7.10188 34.5391 8.21468 35 9.375 35H35.625C36.7853 35 37.8981 34.5391 38.7186 33.7186C39.5391 32.8981 40 31.7853 40 30.625ZM32.3438 15.3125H34.5312C34.8213 15.3125 35.0995 15.4277 35.3046 15.6329C35.5098 15.838 35.625 16.1162 35.625 16.4062V18.5938C35.625 18.8838 35.5098 19.162 35.3046 19.3671C35.0995 19.5723 34.8213 19.6875 34.5312 19.6875H32.3438C32.0537 19.6875 31.7755 19.5723 31.5704 19.3671C31.3652 19.162 31.25 18.8838 31.25 18.5938V16.4062C31.25 16.1162 31.3652 15.838 31.5704 15.6329C31.7755 15.4277 32.0537 15.3125 32.3438 15.3125Z" fill="white"/>
</g>
<defs>
<filter id="filter0_d_3702_2006" x="0" y="0" width="45" height="45" filterUnits="userSpaceOnUse" color-interpolation-filters="sRGB">
<feFlood flood-opacity="0" result="BackgroundImageFix"/>
<feColorMatrix in="SourceAlpha" type="matrix" values="0 0 0 0 0 0 0 0 0 0 0 0 0 0 0 0 0 0 127 0" result="hardAlpha"/>
<feOffset dy="5"/>
<feGaussianBlur stdDeviation="2.5"/>
<feComposite in2="hardAlpha" operator="out"/>
<feColorMatrix type="matrix" values="0 0 0 0 0 0 0 0 0 0 0 0 0 0 0 0 0 0 0.25 0"/>
<feBlend mode="normal" in2="BackgroundImageFix" result="effect1_dropShadow_3702_2006"/>
<feBlend mode="normal" in="SourceGraphic" in2="effect1_dropShadow_3702_2006" result="shape"/>
</filter>
</defs>
</svg>
