<svg width="22" height="17" viewBox="0 0 22 17" fill="none" xmlns="http://www.w3.org/2000/svg">
<path d="M0 3.43501L3.9106 0H11.7089L13.6438 1.6799C14.3425 2.28651 13.9135 3.43501 12.9882 3.43501H3.86486V13.6088H15.4366L11.5946 17H3.86486L0 13.6088V3.43501Z" fill="#053F64"/>
<path d="M17.5634 5.49163C17.5634 5.49163 19.9189 3.5444 20.6279 3.2381C21.3368 2.93179 22 3.2381 22 3.80695V13.6088C21.95 14.6373 21.6256 14.8366 20.6279 14.6589L17.5634 12.2085C16.9288 11.7087 16.7327 11.3918 16.5572 10.7864V7.15444C16.6102 6.5376 16.8507 6.1716 17.5634 5.49163Z" fill="#053F64"/>
</svg>
