<svg width="29" height="18" viewBox="0 0 29 18" fill="none" xmlns="http://www.w3.org/2000/svg">
<path d="M19.7727 7.71429C21.9609 7.71429 23.7141 5.99143 23.7141 3.85714C23.7141 1.72286 21.9609 0 19.7727 0C17.5845 0 15.8182 1.72286 15.8182 3.85714C15.8182 5.99143 17.5845 7.71429 19.7727 7.71429ZM9.22727 7.71429C11.4155 7.71429 13.1686 5.99143 13.1686 3.85714C13.1686 1.72286 11.4155 0 9.22727 0C7.03909 0 5.27273 1.72286 5.27273 3.85714C5.27273 5.99143 7.03909 7.71429 9.22727 7.71429ZM9.22727 10.2857C6.15591 10.2857 0 11.79 0 14.7857V18H18.4545V14.7857C18.4545 11.79 12.2986 10.2857 9.22727 10.2857ZM19.7727 10.2857C19.3905 10.2857 18.9555 10.3114 18.4941 10.35C20.0232 11.43 21.0909 12.8829 21.0909 14.7857V18H29V14.7857C29 11.79 22.8441 10.2857 19.7727 10.2857Z" fill="#053F64"/>
</svg>
