<svg width="594" height="215" viewBox="0 0 594 215" fill="none" xmlns="http://www.w3.org/2000/svg">
<path d="M564 0H30C13.4315 0 0 13.4315 0 30V185C0 201.569 13.4315 215 30 215H564C580.569 215 594 201.569 594 185V30C594 13.4315 580.569 0 564 0Z" fill="url(#paint0_linear_3702_2304)"/>
<mask id="mask0_3702_2304" style="mask-type:alpha" maskUnits="userSpaceOnUse" x="0" y="0" width="594" height="215">
<path d="M564 0H30C13.4315 0 0 13.4315 0 30V185C0 201.569 13.4315 215 30 215H564C580.569 215 594 201.569 594 185V30C594 13.4315 580.569 0 564 0Z" fill="url(#paint1_linear_3702_2304)"/>
</mask>
<g mask="url(#mask0_3702_2304)">
<path d="M702 110.797C675.598 120.738 661.249 133.768 636.37 150.545C600.807 174.525 555.948 151.946 513.586 163.429C488.745 170.163 473.317 178.886 445.297 177.068C424.827 175.739 405.672 170.049 384.197 168.508C341.939 165.471 288.156 199.982 249.29 183.647C226.688 174.147 223.615 163.837 191.922 164.081C169.641 164.253 143.569 173.23 122.354 169.508C100.996 165.761 89.6784 152.983 68.4144 147.787C44.487 141.939 24.8183 141.509 4.45403 129.668C-2.45224 125.651 -9.13188 118.388 -16 110V225H702V110.797Z" fill="#008C8C"/>
<path d="M703 114.435C659.048 109.619 638.765 192.875 592.242 183.898C466.275 159.593 504.542 190.419 427.888 194.226C389.304 196.142 401.426 165.59 315.224 175.976C278.168 180.442 302.866 208.727 198.191 204.505C152.446 202.659 132.033 190.125 94.2885 183.152C76.1998 179.812 25.4604 199.474 8.19191 194.316C-10.6575 188.686 -22.0068 168.778 -42.2053 167.772C-85.5802 165.615 -123.206 185.668 -158.721 157.021C-170.342 147.649 -168.054 119.118 -202 103V224H703V114.435Z" fill="#39B39B"/>
<path d="M600 74.994C595.339 51.1806 574.336 33.2122 549.118 33.2122C547.93 33.2122 546.761 33.2664 545.591 33.3446C545.591 33.2965 545.597 33.2543 545.597 33.2122C545.597 16.526 532.047 3 515.332 3C500.01 3 487.352 14.3649 485.35 29.1129C481.624 28.0233 477.686 27.4274 473.604 27.4274C456.931 27.4274 442.549 37.1911 435.862 51.301C434.336 51.1324 432.78 51.0421 431.206 51.0421C414.389 51.0421 399.856 60.8239 393 75H599.994L600 74.994Z" fill="url(#paint2_linear_3702_2304)"/>
<path d="M388 66C383.102 62.548 377.665 63.5821 376.648 62.5986C376.458 56.599 371.404 51.7895 365.194 51.7895C363.833 51.7895 362.529 52.0227 361.32 52.4452C359.535 48.0845 355.164 45 350.045 45C344.512 45 339.849 48.606 338.387 53.532C333.688 55.9279 330.389 60.5723 330 66H388Z" fill="url(#paint3_linear_3702_2304)"/>
<path d="M359 113C349.88 106.425 339.755 108.394 337.861 106.521C337.508 95.0932 328.098 85.9324 316.533 85.9324C314 85.9324 311.571 86.3766 309.32 87.1812C305.995 78.8753 297.856 73 288.324 73C278.022 73 269.34 79.8685 266.617 89.2514C257.868 93.8151 251.724 102.662 251 113H359Z" fill="url(#paint4_linear_3702_2304)"/>
<path d="M597 156.773V214H487.234C487.234 214 453.767 172.346 507.873 198.052C507.873 198.052 487.234 136.135 536.955 185.387C536.955 185.387 519.51 124.434 554.782 171.783C554.782 171.783 547.925 109.391 576.359 165.216C576.359 165.216 577.453 121.974 596.998 156.773H597Z" fill="#114204"/>
<path d="M596.998 171.221C582.159 151.488 580.731 185.008 580.731 185.008C563.304 160.982 568.974 191.802 568.974 191.802C542.093 164.287 554.366 200.185 554.366 200.185C524.118 177.827 533.346 206.571 533.346 206.571C515.895 197.123 509.096 206.571 517.744 214H597V171.221H596.998Z" fill="#3A8073"/>
<g filter="url(#filter0_f_3702_2304)">
<ellipse cx="439" cy="206" rx="57" ry="5" fill="url(#paint5_radial_3702_2304)"/>
</g>
</g>
<path d="M182.326 204.418C178.897 208.559 175.563 211.84 172.055 214.652H147.714C149.923 212.332 163.806 198.002 174.094 193.534C178.843 191.474 186.43 188.074 188.42 191.28C190.414 194.494 186.293 199.624 182.326 204.418Z" fill="#007331"/>
<path d="M175.062 202.875C172.468 207.182 169.378 211.153 165.932 214.653H149.642C156.96 208.663 165.407 204.691 173.858 203.09C174.177 203.028 174.495 202.97 174.814 202.917C174.897 202.904 174.979 202.892 175.062 202.875Z" fill="#00591F"/>
<path d="M187.977 192.475C183.592 195.959 179.203 199.442 174.814 202.917C169.862 206.838 164.906 210.756 159.942 214.652H158.482L173.858 203.09L187.977 192.475Z" fill="#71DA63"/>
<path d="M53.016 204.352C56.4453 208.493 59.7795 211.773 63.2875 214.586H87.628C85.419 212.266 71.5361 197.936 61.2481 193.468C56.4991 191.408 48.9123 188.008 46.9226 191.214C44.9287 194.428 49.0489 199.558 53.016 204.352Z" fill="#007331"/>
<path d="M60.2801 202.809C62.8738 207.115 65.9639 211.087 69.4098 214.586H85.7003C78.3824 208.596 69.9352 204.625 61.4839 203.024C61.1653 202.962 60.8468 202.904 60.5283 202.85C60.4455 202.838 60.3628 202.826 60.2801 202.809Z" fill="#00591F"/>
<path d="M47.3652 192.409C51.7501 195.892 56.1392 199.376 60.5283 202.85C65.4799 206.772 70.4357 210.69 75.3998 214.586H76.8601L61.4839 203.024L47.3652 192.409Z" fill="#71DA63"/>
<path d="M163.897 185.633C160.517 197.564 155.462 205.862 148 214.653H126.017C126.48 213.391 135.416 189.257 146.333 178.684C151.081 174.084 158.602 166.625 163.223 168.9C167.848 171.18 165.883 178.622 163.897 185.633Z" fill="#007331"/>
<path d="M153.601 187.822C152.711 197.316 149.543 206.574 144.471 214.653H127.874C133.368 204.034 141.935 195.011 152.194 188.67H152.198C152.567 188.438 152.935 188.215 153.311 187.995C153.406 187.938 153.506 187.88 153.601 187.822Z" fill="#00591F"/>
<path d="M163.425 170.365C160.058 176.243 156.687 182.121 153.311 187.995C148.194 196.898 143.056 205.787 137.877 214.653H136.26L152.194 188.67H152.198L163.425 170.365Z" fill="#71DA63"/>
<path d="M109.764 214.599H86.78C79.9999 204.083 75.677 194.325 73.5342 180.802C72.2642 172.764 71.0645 164.251 76.2768 162.248C81.4891 160.255 88.6208 169.43 93.134 175.101C101.726 185.89 107.745 206.859 109.764 214.599Z" fill="#007331"/>
<path d="M107.447 214.599H90.4286C86.2174 205.213 84.0746 194.825 84.269 184.434C84.3641 184.508 84.4634 184.583 84.5586 184.657C84.9309 184.947 85.299 185.236 85.6631 185.538H85.6672C95.1196 193.191 102.739 203.239 107.447 214.599Z" fill="#00591F"/>
<path d="M98.7724 214.599H97.1673C92.9272 204.633 88.7325 194.651 84.5586 184.657C81.6628 177.728 78.7713 170.791 75.8838 163.858L85.6631 185.538H85.6672L98.7724 214.599Z" fill="#71DA63"/>
<path d="M127.262 214.652H127.093C127.043 214.561 127.035 214.557 127.035 214.557L126.695 214.652H106.736C105.184 205.25 102.611 185.522 105.747 172.768C107.542 165.467 110.277 153.735 116.01 153.234C121.744 152.73 124.271 161.165 126.526 169.19C131.097 185.464 130.356 198.101 127.262 214.652Z" fill="#007331"/>
<path d="M124.962 214.653H109.251C109.003 202.391 111.82 190.072 117.21 179.068C117.421 178.626 117.64 178.187 117.868 177.753C117.921 177.637 117.983 177.525 118.041 177.41C123.618 188.906 126.038 201.928 124.962 214.653Z" fill="#00591F"/>
<path d="M118.997 214.652H117.417L117.21 179.068L117.065 154.542C117.338 162.282 117.607 170.017 117.868 177.753C118.285 190.051 118.674 202.35 118.997 214.652Z" fill="#71DA63"/>
<path d="M19 166.088C20.5313 188.99 26.2284 204.471 33.3715 214.939H73.1969C69.9011 199.7 57.5676 179.695 19 166.088Z" fill="#A9B022"/>
<path d="M33.3697 214.939H73.1952C72.3835 211.189 71.0226 207.148 68.8613 202.987C62.7831 200.649 56.0727 200.079 49.1223 199.402C40.4905 198.561 32.8989 195.279 25.3522 191.196C24.3545 190.656 23.4285 190.174 22.5608 189.75C25.2244 200.357 29.0291 208.577 33.3697 214.939Z" fill="#979E0A"/>
<path d="M24.9169 173.885C24.3788 174.293 40.8332 196.965 54.0119 214.94H58.1866C44.2142 197.131 25.4752 173.462 24.9169 173.885Z" fill="#767A0A"/>
<path d="M102.129 189.93C94.6514 194.44 90.3108 200.359 88.1181 205.543C86.71 209.146 86.1787 212.316 86.0868 214.94H104.187C111.258 209.657 118.271 201.317 132.25 184.831C120.018 182.47 109.505 185.497 102.129 189.93Z" fill="#A9B022"/>
<path d="M111.267 208.682C107.214 208.603 103.355 207.68 98.3735 205.431C95.5104 204.137 92.2975 203.859 89.1789 203.317C88.782 204.07 88.43 204.814 88.1206 205.545C86.7126 209.148 86.1812 212.319 86.0893 214.942H104.189C106.476 213.233 108.759 211.204 111.27 208.684L111.267 208.682Z" fill="#979E0A"/>
<path d="M103.427 200.844C98.1847 205.225 93.8845 210.7 90.981 214.939H93.5773C96.2633 210.949 100.014 206.097 104.545 202.057C113.614 192.867 126.217 187.351 125.934 187.196C126.031 186.75 112.984 191.755 103.427 200.844Z" fill="#767A0A"/>
<path d="M249.854 190.77C243.01 178.444 235.635 174.866 232.292 177.28C228.776 179.78 230.111 186.778 236.231 197.832C238.82 202.442 242.492 208.886 245.924 215H258.257C256.755 206.585 253.266 196.808 249.854 190.77Z" fill="#66991A"/>
<path d="M229.266 203.356C218.83 197.415 211.952 198.696 211.131 201.732C210.165 204.999 214.566 208.642 223.239 213.617C223.97 214.027 224.758 214.482 225.582 214.969H242.783C238.749 210.17 233.512 205.697 229.266 203.357V203.356Z" fill="#A9B022"/>
<path d="M236.837 208.882C234.309 210.35 231.772 211.535 228.835 212.02C226.28 212.441 223.625 212.013 221.053 212.335C221.748 212.752 222.477 213.178 223.239 213.616C223.97 214.025 224.758 214.48 225.582 214.968H242.783C240.976 212.819 238.929 210.737 236.837 208.881V208.882Z" fill="#959C17"/>
<path d="M233.823 213.231C224.617 205.896 212.807 202.103 212.929 202.331C212.744 202.357 224.395 206.372 233.41 213.773C233.945 214.162 234.471 214.562 234.988 214.969H236.142C235.388 214.371 234.614 213.789 233.823 213.231Z" fill="#878C12"/>
<path d="M285.254 175.254C281.42 176.62 280.984 183.474 282.258 195.425C282.863 200.625 283.381 208.035 283.418 215H294.753C296.487 207.786 297.103 199.725 296.401 194.046C294.825 179.696 288.763 173.908 285.254 175.254Z" fill="#A9B022"/>
<path d="M285.387 177.329C285.222 177.167 289.859 191.375 288.961 205.407C288.959 208.672 288.658 211.928 288.197 215H289.225C289.637 211.925 289.888 208.678 289.839 205.427C290.525 191.256 285.534 177.049 285.387 177.329Z" fill="#7D820D"/>
<defs>
<filter id="filter0_f_3702_2304" x="377" y="196" width="124" height="20" filterUnits="userSpaceOnUse" color-interpolation-filters="sRGB">
<feFlood flood-opacity="0" result="BackgroundImageFix"/>
<feBlend mode="normal" in="SourceGraphic" in2="BackgroundImageFix" result="shape"/>
<feGaussianBlur stdDeviation="2.5" result="effect1_foregroundBlur_3702_2304"/>
</filter>
<linearGradient id="paint0_linear_3702_2304" x1="297" y1="216.103" x2="297" y2="-22.6755" gradientUnits="userSpaceOnUse">
<stop offset="0.0819855" stop-color="#C9F1FD"/>
<stop offset="0.478742" stop-color="#7EE0FC"/>
</linearGradient>
<linearGradient id="paint1_linear_3702_2304" x1="297" y1="216.103" x2="297" y2="-22.6755" gradientUnits="userSpaceOnUse">
<stop offset="0.0819855" stop-color="#C9F1FD"/>
<stop offset="0.478742" stop-color="#7EE0FC"/>
</linearGradient>
<linearGradient id="paint2_linear_3702_2304" x1="496.5" y1="-24.0278" x2="496.5" y2="80.3574" gradientUnits="userSpaceOnUse">
<stop offset="0.18" stop-color="#E3F8FF"/>
<stop offset="0.32" stop-color="#DAF5FE"/>
<stop offset="0.54" stop-color="#C2F0FE"/>
<stop offset="0.81" stop-color="#9CE7FC"/>
<stop offset="1" stop-color="#7EE0FC"/>
</linearGradient>
<linearGradient id="paint3_linear_3702_2304" x1="358.999" y1="43.3763" x2="358.999" y2="68.7127" gradientUnits="userSpaceOnUse">
<stop offset="0.18" stop-color="#E3F8FF"/>
<stop offset="0.32" stop-color="#DAF5FE"/>
<stop offset="0.54" stop-color="#C2F0FE"/>
<stop offset="0.81" stop-color="#9CE7FC"/>
<stop offset="1" stop-color="#7EE0FC"/>
</linearGradient>
<linearGradient id="paint4_linear_3702_2304" x1="304.998" y1="69.9073" x2="304.998" y2="118.167" gradientUnits="userSpaceOnUse">
<stop offset="0.18" stop-color="#E3F8FF"/>
<stop offset="0.32" stop-color="#DAF5FE"/>
<stop offset="0.54" stop-color="#C2F0FE"/>
<stop offset="0.81" stop-color="#9CE7FC"/>
<stop offset="1" stop-color="#7EE0FC"/>
</linearGradient>
<radialGradient id="paint5_radial_3702_2304" cx="0" cy="0" r="1" gradientUnits="userSpaceOnUse" gradientTransform="translate(439 206) rotate(90) scale(5 57)">
<stop stop-opacity="0.4"/>
<stop offset="1" stop-opacity="0"/>
</radialGradient>
</defs>
</svg>
