<svg width="98" height="68" viewBox="0 0 98 68" fill="none" xmlns="http://www.w3.org/2000/svg">
<path d="M12.6488 67.6587H6.79347L0.126953 49.3611H5.39445L9.76093 62.4708L14.1274 49.3611H19.3153L12.6488 67.6613V67.6587Z" fill="#053F64"/>
<path d="M25.6532 67.6586H20.686V49.3584H25.6532V67.6586Z" fill="#053F64"/>
<path d="M41.5076 55.0186C40.3062 54.3384 38.4888 53.4887 36.2273 53.4887C34.895 53.4887 33.8733 53.8558 33.8733 54.6772C33.8733 55.7091 35.7421 55.8144 37.6109 56.1815L38.1987 56.2996C41.9773 57.0311 43.8975 58.8486 43.8975 61.6595C43.8975 66.2852 39.9879 68 36.0938 68C32.8131 68 29.8328 67.2145 27.7407 65.7256L30.1717 61.6749C31.622 62.5502 33.3753 63.5565 36.1579 63.5565C37.4902 63.5565 38.4708 63.1894 38.4708 62.2884C38.4708 61.3334 37.3336 61.164 35.0593 60.7713L34.3662 60.6532C30.1563 59.9344 28.4056 58.117 28.498 54.8749C28.5904 51.3709 31.5296 49.0323 35.9218 49.0323C38.3142 49.0323 40.4705 49.2813 43.6459 50.955L41.5024 55.0186H41.5076Z" fill="#053F64"/>
<path d="M50.9564 67.6586H45.9893V49.3584H50.9564V67.6586Z" fill="#053F64"/>
<path d="M72.2625 58.5098C72.2625 63.9723 68.2502 68 62.59 68C56.9297 68 52.9175 63.9749 52.9175 58.5098C52.9175 53.0446 56.9297 49.0195 62.59 49.0195C68.2502 49.0195 72.2625 53.0446 72.2625 58.5098ZM58.0797 58.5098C58.0797 61.3078 59.9228 63.2408 62.59 63.2408C65.2571 63.2408 67.1002 61.3052 67.1002 58.5098C67.1002 55.7143 65.2571 53.7788 62.59 53.7788C59.9228 53.7788 58.0797 55.7143 58.0797 58.5098Z" fill="#053F64"/>
<path d="M91.5665 67.6586H86.7302L79.1883 57.3726V67.6586H74.2212V49.3584H79.0574L86.5993 59.6444V49.3584H91.5665V67.6586Z" fill="#053F64"/>
<path d="M74.1085 7.66507C74.5706 9.71354 74.8042 11.8108 74.8042 13.9106C74.8042 29.4846 62.2053 42.1246 46.6338 42.1759C46.5927 42.1759 46.5542 42.1759 46.5132 42.1759C46.3566 42.1759 46.2 42.1759 46.0434 42.1708C37.8187 41.9475 31.2651 35.2039 31.2651 26.9741C31.2651 21.9992 33.6576 17.5737 37.3618 14.7988C36.1245 16.588 35.4032 18.7545 35.4032 21.088C35.4032 27.2 40.3575 32.1543 46.4695 32.1543C55.8314 32.1543 63.422 24.5637 63.422 15.2018C63.422 9.06922 60.1671 3.69904 55.2872 0.721313C61.9178 1.81999 68.2917 4.15597 74.1085 7.6625" fill="url(#paint0_linear_3346_1164)"/>
<path d="M18.8254 34.5134C18.3634 32.4649 18.1323 30.3677 18.1323 28.2679C18.1323 12.6939 30.7286 0.0539072 46.3027 0C46.3437 0 46.3822 0 46.4233 0C46.5799 0 46.7365 0 46.8931 0.00513402C55.1178 0.228464 61.6713 6.97456 61.6713 15.2018C61.6713 20.1767 59.2789 24.6022 55.5747 27.3771C56.812 25.5879 57.5359 23.4214 57.5359 21.088C57.5359 14.9759 52.5816 10.0216 46.4695 10.0216C37.1076 10.0216 29.517 17.6122 29.517 26.9741C29.517 33.1067 32.772 38.4769 37.6493 41.4546C31.0187 40.3559 24.6448 38.02 18.828 34.5134" fill="url(#paint1_linear_3346_1164)"/>
<path d="M31.7963 2.03564C22.5987 7.16709 16.3814 16.991 16.3814 28.2653C16.3814 29.9262 16.5174 31.5845 16.7921 33.2222C11.8378 29.9236 7.45334 25.8164 3.83643 21.0854C10.9522 11.78 20.7761 5.16483 31.7963 2.03564Z" fill="url(#paint2_linear_3346_1164)"/>
<path d="M61.1348 40.1429C70.3324 35.014 76.5496 25.1849 76.5496 13.9106C76.5496 12.2498 76.4136 10.5915 76.1415 8.95374C81.0958 12.2523 85.4803 16.3596 89.0972 21.088C81.9814 30.3985 72.1575 37.0137 61.1348 40.1403" fill="url(#paint3_linear_3346_1164)"/>
<path d="M40.563 21.0495C41.233 21.7503 42.1597 22.1482 43.1274 22.1482C44.0952 22.1482 45.0219 21.7503 45.6919 21.0495C46.3619 20.3512 46.7136 19.404 46.6673 18.4363C46.7136 17.4685 46.3593 16.5264 45.6919 15.823C45.0219 15.1223 44.0952 14.7244 43.1274 14.7244C42.1597 14.7244 41.2304 15.1223 40.563 15.823C39.893 16.5238 39.5413 17.4685 39.5875 18.4363C39.5413 19.404 39.8956 20.3487 40.563 21.0495Z" fill="#295A8F"/>
<path d="M95.0601 63.7292C94.7981 63.7292 94.5386 63.7809 94.2964 63.8812C94.0543 63.9815 93.8343 64.1285 93.649 64.3138C93.2747 64.688 93.0645 65.1957 93.0645 65.7249C93.0645 66.2542 93.2747 66.7618 93.649 67.1361C93.8343 67.3214 94.0543 67.4684 94.2964 67.5687C94.5386 67.669 94.7981 67.7206 95.0601 67.7206C95.5894 67.7206 96.0971 67.5104 96.4713 67.1361C96.8456 66.7618 97.0558 66.2542 97.0558 65.7249C97.0558 65.4629 97.0042 65.2034 96.9039 64.9612C96.8036 64.7191 96.6566 64.4991 96.4713 64.3138C96.286 64.1285 96.066 63.9815 95.8239 63.8812C95.5817 63.7809 95.3222 63.7292 95.0601 63.7292ZM95.0601 67.3215C94.18 67.3215 93.4636 66.605 93.4636 65.7249C93.4636 64.8448 94.18 64.1284 95.0601 64.1284C95.9403 64.1284 96.6567 64.8448 96.6567 65.7249C96.6567 66.605 95.9403 67.3215 95.0601 67.3215ZM95.11 65.9784H94.8227V66.623H94.4614V64.8688H95.112C95.3176 64.8688 95.4772 64.9147 95.591 65.0065C95.7028 65.1003 95.7586 65.226 95.7586 65.3976C95.7586 65.5174 95.7327 65.6172 95.6808 65.697C95.6289 65.7768 95.5511 65.8407 95.4453 65.8866L95.8245 66.6031V66.623H95.4373L95.11 65.9784ZM94.8227 65.687H95.114C95.2038 65.687 95.2737 65.6631 95.3236 65.6172C95.3735 65.5713 95.3974 65.5074 95.3974 65.4256C95.3974 65.3438 95.3755 65.2799 95.3276 65.232C95.2817 65.1841 95.2098 65.1622 95.112 65.1622H94.8227V65.687Z" fill="#053F64"/>
<defs>
<linearGradient id="paint0_linear_3346_1164" x1="3.62103" y1="21.088" x2="88.8816" y2="21.088" gradientUnits="userSpaceOnUse">
<stop stop-color="#FF6355"/>
<stop offset="0.09" stop-color="#FBA949"/>
<stop offset="0.16" stop-color="#FAE442"/>
<stop offset="0.23" stop-color="#8BD448"/>
<stop offset="0.32" stop-color="#2AA8F2"/>
<stop offset="0.54" stop-color="#053F64"/>
</linearGradient>
<linearGradient id="paint1_linear_3346_1164" x1="3.62103" y1="21.088" x2="88.8816" y2="21.088" gradientUnits="userSpaceOnUse">
<stop stop-color="#FF6355"/>
<stop offset="0.09" stop-color="#FBA949"/>
<stop offset="0.16" stop-color="#FAE442"/>
<stop offset="0.23" stop-color="#8BD448"/>
<stop offset="0.32" stop-color="#2AA8F2"/>
<stop offset="0.54" stop-color="#053F64"/>
</linearGradient>
<linearGradient id="paint2_linear_3346_1164" x1="3.6208" y1="21.088" x2="88.8814" y2="21.088" gradientUnits="userSpaceOnUse">
<stop stop-color="#FF6355"/>
<stop offset="0.09" stop-color="#FBA949"/>
<stop offset="0.16" stop-color="#FAE442"/>
<stop offset="0.23" stop-color="#8BD448"/>
<stop offset="0.32" stop-color="#2AA8F2"/>
<stop offset="0.54" stop-color="#053F64"/>
</linearGradient>
<linearGradient id="paint3_linear_3346_1164" x1="3.62096" y1="21.088" x2="88.8816" y2="21.088" gradientUnits="userSpaceOnUse">
<stop stop-color="#FF6355"/>
<stop offset="0.09" stop-color="#FBA949"/>
<stop offset="0.16" stop-color="#FAE442"/>
<stop offset="0.23" stop-color="#8BD448"/>
<stop offset="0.32" stop-color="#2AA8F2"/>
<stop offset="0.54" stop-color="#053F64"/>
</linearGradient>
</defs>
</svg>
