<svg width="22" height="22" viewBox="0 0 22 22" fill="none" xmlns="http://www.w3.org/2000/svg">
<path d="M5.5 0.6875C5.5 0.505164 5.42757 0.330295 5.29864 0.201364C5.1697 0.0724328 4.99484 0 4.8125 0C4.63016 0 4.4553 0.0724328 4.32636 0.201364C4.19743 0.330295 4.125 0.505164 4.125 0.6875V1.375H2.75C2.02065 1.375 1.32118 1.66473 0.805456 2.18046C0.289731 2.69618 0 3.39565 0 4.125L0 5.5H22V4.125C22 3.39565 21.7103 2.69618 21.1945 2.18046C20.6788 1.66473 19.9793 1.375 19.25 1.375H17.875V0.6875C17.875 0.505164 17.8026 0.330295 17.6736 0.201364C17.5447 0.0724328 17.3698 0 17.1875 0C17.0052 0 16.8303 0.0724328 16.7014 0.201364C16.5724 0.330295 16.5 0.505164 16.5 0.6875V1.375H5.5V0.6875ZM22 19.25V6.875H0V19.25C0 19.9793 0.289731 20.6788 0.805456 21.1945C1.32118 21.7103 2.02065 22 2.75 22H19.25C19.9793 22 20.6788 21.7103 21.1945 21.1945C21.7103 20.6788 22 19.9793 22 19.25ZM17.1875 9.625H18.5625C18.7448 9.625 18.9197 9.69743 19.0486 9.82636C19.1776 9.9553 19.25 10.1302 19.25 10.3125V11.6875C19.25 11.8698 19.1776 12.0447 19.0486 12.1736C18.9197 12.3026 18.7448 12.375 18.5625 12.375H17.1875C17.0052 12.375 16.8303 12.3026 16.7014 12.1736C16.5724 12.0447 16.5 11.8698 16.5 11.6875V10.3125C16.5 10.1302 16.5724 9.9553 16.7014 9.82636C16.8303 9.69743 17.0052 9.625 17.1875 9.625Z" fill="#053F64"/>
</svg>
