<svg width="26" height="16" viewBox="0 0 26 16" fill="none" xmlns="http://www.w3.org/2000/svg">
<path d="M17.7273 6.85714C19.6891 6.85714 21.2609 5.32571 21.2609 3.42857C21.2609 1.53143 19.6891 0 17.7273 0C15.7655 0 14.1818 1.53143 14.1818 3.42857C14.1818 5.32571 15.7655 6.85714 17.7273 6.85714ZM8.27273 6.85714C10.2345 6.85714 11.8064 5.32571 11.8064 3.42857C11.8064 1.53143 10.2345 0 8.27273 0C6.31091 0 4.72727 1.53143 4.72727 3.42857C4.72727 5.32571 6.31091 6.85714 8.27273 6.85714ZM8.27273 9.14286C5.51909 9.14286 0 10.48 0 13.1429V16H16.5455V13.1429C16.5455 10.48 11.0264 9.14286 8.27273 9.14286ZM17.7273 9.14286C17.3845 9.14286 16.9945 9.16572 16.5809 9.2C17.9518 10.16 18.9091 11.4514 18.9091 13.1429V16H26V13.1429C26 10.48 20.4809 9.14286 17.7273 9.14286Z" fill="#053F64"/>
</svg>
