<svg width="27" height="21" viewBox="0 0 27 21" fill="none" xmlns="http://www.w3.org/2000/svg">
<path d="M0 4.24324L4.79938 0H14.3701L17.2196 2.49026C17.9152 3.09807 17.4853 4.24324 16.5616 4.24324H4.74324V16.8108H18.9449L14.2297 21H4.74324L0 16.8108V4.24324Z" fill="#053F64"/>
<path d="M21.5551 6.78378C21.5551 6.78378 24.4459 4.37838 25.316 4C26.1861 3.62162 27 4 27 4.7027V16.8108C26.9386 18.0814 26.5405 18.3275 25.316 18.1081L21.5551 15.0811C20.7763 14.4636 20.5356 14.0722 20.3202 13.3243V8.83784C20.3853 8.07586 20.6804 7.62374 21.5551 6.78378Z" fill="#053F64"/>
</svg>
