<svg width="17" height="18" viewBox="0 0 17 18" fill="none" xmlns="http://www.w3.org/2000/svg">
<path d="M8.80055 11.1672C10.4133 11.1672 11.7054 9.92022 11.7054 8.37542L11.7151 2.79181C11.7151 1.24701 10.4133 0 8.80055 0C7.18785 0 5.88603 1.24701 5.88603 2.79181V8.37542C5.88603 9.92022 7.18785 11.1672 8.80055 11.1672ZM13.9495 8.37542C13.9495 11.1672 11.4819 13.1215 8.80055 13.1215C6.11919 13.1215 3.65156 11.1672 3.65156 8.37542H2C2 11.5488 4.6425 14.1731 7.82905 14.6291V17.6814H9.77206V14.6291C12.9586 14.1824 15.6011 11.5581 15.6011 8.37542H13.9495Z" fill="white"/>
<line x1="1" y1="17.2929" x2="16.2929" y2="2" stroke="#FF6355" stroke-linecap="round"/>
</svg>
