<svg width="242" height="99" viewBox="0 0 242 99" fill="none" xmlns="http://www.w3.org/2000/svg">
<path d="M60.683 82.7271C66.2235 89.4171 71.6102 94.7169 77.2776 99.2615H116.602C113.033 95.5122 90.6041 72.3613 73.9828 65.1434C66.3104 61.8151 54.0532 56.3215 50.8386 61.501C47.6172 66.6939 54.2738 74.9812 60.683 82.7271Z" fill="#007331"/>
<path d="M72.4187 80.2344C76.6091 87.1917 81.6015 93.6076 87.1687 99.2617H113.487C101.665 89.5843 88.0174 83.1683 74.3635 80.5819C73.8489 80.4817 73.3343 80.3881 72.8197 80.3012C72.686 80.2812 72.5523 80.2611 72.4187 80.2344Z" fill="#00591F"/>
<path d="M51.5537 63.4324C58.6379 69.0597 65.7289 74.687 72.8199 80.301C80.8197 86.6367 88.8263 92.9658 96.8462 99.2614H99.2054L74.3637 80.5817L51.5537 63.4324Z" fill="#71DA63"/>
<path d="M269.596 82.6202C264.056 89.3101 258.669 94.61 253.002 99.1546H213.677C217.246 95.4053 239.675 72.2544 256.297 65.0365C263.969 61.7082 276.226 56.2145 279.441 61.3941C282.662 66.587 276.006 74.8743 269.596 82.6202Z" fill="#007331"/>
<path d="M257.86 80.1274C253.67 87.0847 248.678 93.5007 243.11 99.1547H216.792C228.614 89.4774 242.262 83.0614 255.916 80.475C256.43 80.3747 256.945 80.2812 257.459 80.1943C257.593 80.1742 257.727 80.1542 257.86 80.1274Z" fill="#00591F"/>
<path d="M278.726 63.3254C271.641 68.9528 264.55 74.5801 257.459 80.194C249.459 86.5298 241.453 92.8588 233.433 99.1545H231.074L255.915 80.4747L278.726 63.3254Z" fill="#71DA63"/>
<path d="M90.4572 52.3784C95.9175 71.653 104.084 85.0597 116.141 99.2616H151.656C150.907 97.2232 136.472 58.233 118.834 41.1505C111.162 33.7187 99.0118 21.6688 91.5466 25.3446C84.0747 29.0271 87.2493 41.0503 90.4572 52.3784Z" fill="#007331"/>
<path d="M107.092 55.9138C108.529 71.2519 113.648 86.2091 121.842 99.2616H148.655C139.78 82.1056 125.939 67.5294 109.364 57.2839H109.357C108.763 56.9096 108.168 56.5487 107.56 56.1945C107.406 56.1009 107.245 56.0074 107.092 55.9138Z" fill="#00591F"/>
<path d="M91.2192 27.7104C96.6594 37.2074 102.106 46.7043 107.56 56.1946C115.827 70.577 124.128 84.9394 132.495 99.2616H135.108L109.364 57.284H109.358L91.2192 27.7104Z" fill="#71DA63"/>
<path d="M177.915 99.1747H215.047C226.001 82.1858 232.985 66.4199 236.447 44.5723C238.499 31.5867 240.437 17.8325 232.016 14.5978C223.595 11.3765 212.073 26.2 204.782 35.3627C190.901 52.7927 181.176 86.6703 177.915 99.1747Z" fill="#007331"/>
<path d="M181.658 99.1747H209.153C215.956 84.0103 219.418 67.2286 219.104 50.4402C218.95 50.5605 218.79 50.6808 218.636 50.8011C218.035 51.2689 217.44 51.7367 216.852 52.2246H216.845C201.574 64.5887 189.263 80.8224 181.658 99.1747Z" fill="#00591F"/>
<path d="M195.673 99.1746H198.266C205.116 83.0746 211.893 66.9478 218.636 50.801C223.315 39.6065 227.986 28.3987 232.651 17.1975L216.852 52.2246H216.845L195.673 99.1746Z" fill="#71DA63"/>
<path d="M149.645 99.2615H149.919C149.999 99.1145 150.012 99.1078 150.012 99.1078L150.56 99.2615H182.807C185.313 84.0704 189.47 52.1979 184.404 31.5933C181.504 19.7973 177.086 0.843548 167.823 0.034871C158.56 -0.780489 154.477 12.8467 150.834 25.8123C143.449 52.1043 144.645 72.5217 149.645 99.2615Z" fill="#007331"/>
<path d="M153.361 99.2616H178.744C179.145 79.4524 174.594 59.5496 165.885 41.772C165.544 41.0569 165.19 40.3485 164.823 39.6468C164.736 39.4596 164.636 39.2792 164.542 39.092C155.533 57.6649 151.623 78.7038 153.361 99.2616Z" fill="#00591F"/>
<path d="M162.998 99.2614H165.551L165.885 41.7719L166.119 2.14673C165.678 14.6511 165.243 27.1489 164.822 39.6466C164.147 59.516 163.519 79.3854 162.998 99.2614Z" fill="#71DA63"/>
<path d="M182.967 20.8003C180.493 57.8014 171.289 82.813 159.748 99.7252H95.4065C100.731 75.1048 120.657 42.7836 182.967 20.8003Z" fill="#A9B022"/>
<path d="M159.751 99.7251H95.4094C96.7207 93.6651 98.9194 87.1378 102.411 80.415C112.231 76.637 123.072 75.7169 134.301 74.623C148.247 73.2647 160.512 67.9617 172.704 61.3656C174.316 60.4927 175.812 59.7139 177.214 59.0293C172.911 76.1661 166.764 89.4452 159.751 99.7251Z" fill="#979E0A"/>
<path d="M173.408 33.3985C174.277 34.0577 147.693 70.6858 126.402 99.7252H119.657C142.231 70.9538 172.506 32.7139 173.408 33.3985Z" fill="#767A0A"/>
<path d="M48.6647 59.3193C60.7448 66.6072 67.7575 76.1699 71.3 84.5445C73.5748 90.3654 74.4333 95.4873 74.5818 99.7253H45.3395C33.9149 91.1913 22.5846 77.7166 -4.57764e-05 51.0823C19.7629 47.2681 36.7475 52.1581 48.6647 59.3193Z" fill="#A9B022"/>
<path d="M33.8998 89.6155C40.4488 89.4887 46.6827 87.9964 54.7313 84.3633C59.3569 82.2732 64.5475 81.8241 69.5861 80.9475C70.2272 82.1646 70.7959 83.3672 71.2958 84.548C73.5705 90.3689 74.429 95.4908 74.5775 99.7288H45.3352C41.6405 96.9687 37.9531 93.6905 33.8962 89.6191L33.8998 89.6155Z" fill="#979E0A"/>
<path d="M46.5675 76.9523C55.0363 84.0302 61.9838 92.8757 66.6746 99.7253H62.48C58.1406 93.2777 52.0806 85.4392 44.76 78.912C30.1081 64.0644 9.74753 55.1537 10.2039 54.9038C10.0482 54.183 31.126 62.2678 46.5675 76.9523Z" fill="#767A0A"/>
</svg>
