<svg width="230" height="99" viewBox="0 0 230 99" fill="none" xmlns="http://www.w3.org/2000/svg">
<path d="M168.596 82.7271C163.056 89.4171 157.669 94.7169 152.002 99.2615H112.677C116.246 95.5122 138.675 72.3613 155.297 65.1434C162.969 61.8151 175.226 56.3215 178.441 61.501C181.662 66.6939 175.006 74.9812 168.596 82.7271Z" fill="#007331"/>
<path d="M156.861 80.2344C152.67 87.1917 147.678 93.6076 142.111 99.2617H115.792C127.615 89.5843 141.262 83.1683 154.916 80.5819C155.431 80.4817 155.945 80.3881 156.46 80.3012C156.593 80.2812 156.727 80.2611 156.861 80.2344Z" fill="#00591F"/>
<path d="M177.726 63.4324C170.641 69.0597 163.551 74.687 156.46 80.301C148.46 86.6367 140.453 92.9658 132.433 99.2614H130.074L154.916 80.5817L177.726 63.4324Z" fill="#71DA63"/>
<path d="M-40.3171 82.6202C-34.7766 89.3101 -29.3899 94.61 -23.7225 99.1546H15.6019C12.033 95.4053 -10.396 72.2544 -27.0174 65.0365C-34.6898 61.7082 -46.9469 56.2145 -50.1616 61.3941C-53.3829 66.587 -46.7263 74.8743 -40.3171 82.6202Z" fill="#007331"/>
<path d="M-28.5813 80.1274C-24.3909 87.0847 -19.3985 93.5007 -13.8313 99.1547H12.4874C0.664728 89.4774 -12.9825 83.0614 -26.6365 80.475C-27.1511 80.3747 -27.6657 80.2812 -28.1803 80.1943C-28.314 80.1742 -28.4476 80.1542 -28.5813 80.1274Z" fill="#00591F"/>
<path d="M138.822 52.3784C133.362 71.653 125.195 85.0597 113.138 99.2616H77.6233C78.3718 97.2232 92.8077 58.233 110.445 41.1505C118.117 33.7187 130.267 21.6688 137.733 25.3446C145.205 29.0271 142.03 41.0503 138.822 52.3784Z" fill="#007331"/>
<path d="M122.188 55.9138C120.751 71.2519 115.631 86.2091 107.438 99.2616H80.6243C89.4997 82.1056 103.341 67.5294 119.915 57.2839H119.922C120.517 56.9096 121.112 56.5487 121.72 56.1945C121.873 56.1009 122.034 56.0074 122.188 55.9138Z" fill="#00591F"/>
<path d="M138.06 27.7104C132.62 37.2074 127.173 46.7043 121.72 56.1946C113.452 70.577 105.152 84.9394 96.7843 99.2616H94.1711L119.915 57.284H119.922L138.06 27.7104Z" fill="#71DA63"/>
<path d="M51.3642 99.1747H14.2319C3.27798 82.1858 -3.70605 66.4199 -7.16799 44.5723C-9.21975 31.5867 -11.1579 17.8325 -2.73697 14.5978C5.68396 11.3765 17.2059 26.2 24.4974 35.3627C38.3786 52.7927 48.1027 86.6703 51.3642 99.1747Z" fill="#007331"/>
<path d="M47.6216 99.1747H20.1265C13.323 84.0103 9.86103 67.2286 10.1751 50.4402C10.3289 50.5605 10.4893 50.6808 10.643 50.8011C11.2445 51.2689 11.8393 51.7367 12.4274 52.2246H12.4341C27.7054 64.5887 40.016 80.8224 47.6216 99.1747Z" fill="#00591F"/>
<path d="M33.6065 99.1746H31.0134C24.163 83.0746 17.3862 66.9478 10.6428 50.801C5.96447 39.6065 1.29286 28.3987 -3.37207 17.1975L12.4272 52.2246H12.4339L33.6065 99.1746Z" fill="#71DA63"/>
<path d="M79.6347 99.2615H79.3607C79.2805 99.1145 79.2671 99.1078 79.2671 99.1078L78.7191 99.2615H46.4723C43.9661 84.0704 39.8091 52.1979 44.875 31.5933C47.7755 19.7973 52.1932 0.843548 61.4562 0.034871C70.7192 -0.780489 74.8027 12.8467 78.4451 25.8123C85.8301 52.1043 84.6338 72.5217 79.6347 99.2615Z" fill="#007331"/>
<path d="M75.9185 99.2616H50.5354C50.1344 79.4524 54.6857 59.5496 63.394 41.772C63.7349 41.0569 64.0891 40.3485 64.4567 39.6468C64.5435 39.4596 64.6438 39.2792 64.7374 39.092C73.7464 57.6649 77.6561 78.7038 75.9185 99.2616Z" fill="#00591F"/>
<path d="M66.2815 99.2614H63.7285L63.3943 41.7719L63.1604 2.14673C63.6015 14.6511 64.0359 27.1489 64.457 39.6466C65.132 59.516 65.7602 79.3854 66.2815 99.2614Z" fill="#71DA63"/>
<path d="M46.3125 20.8003C48.7865 57.8014 57.9906 82.813 69.531 99.7252H133.873C128.548 75.1048 108.622 42.7836 46.3125 20.8003Z" fill="#A9B022"/>
<path d="M69.528 99.7251H133.87C132.559 93.6651 130.36 87.1378 126.868 80.415C117.048 76.637 106.207 75.7169 94.9778 74.623C81.0322 73.2647 68.7673 67.9617 56.5749 61.3656C54.963 60.4927 53.467 59.7139 52.0652 59.0293C56.3684 76.1661 62.5153 89.4452 69.528 99.7251Z" fill="#979E0A"/>
<path d="M55.8719 33.3985C55.0025 34.0577 81.5861 70.6858 102.878 99.7252H109.622C87.0484 70.9538 56.7738 32.7139 55.8719 33.3985Z" fill="#767A0A"/>
<path d="M180.615 59.3193C168.534 66.6072 161.522 76.1699 157.979 84.5445C155.704 90.3654 154.846 95.4873 154.698 99.7253H183.94C195.364 91.1913 206.695 77.7166 229.279 51.0823C209.516 47.2681 192.532 52.1581 180.615 59.3193Z" fill="#A9B022"/>
<path d="M195.379 89.6155C188.83 89.4887 182.596 87.9964 174.548 84.3633C169.922 82.2732 164.732 81.8241 159.693 80.9475C159.052 82.1646 158.483 83.3672 157.983 84.548C155.709 90.3689 154.85 95.4908 154.702 99.7288H183.944C187.639 96.9687 191.326 93.6905 195.383 89.6191L195.379 89.6155Z" fill="#979E0A"/>
<path d="M182.712 76.9523C174.243 84.0302 167.296 92.8757 162.605 99.7253H166.799C171.139 93.2777 177.199 85.4392 184.519 78.912C199.171 64.0644 219.532 55.1537 219.075 54.9038C219.231 54.183 198.153 62.2678 182.712 76.9523Z" fill="#767A0A"/>
</svg>
