<svg width="451" height="157" viewBox="0 0 451 157" fill="none" xmlns="http://www.w3.org/2000/svg">
<path d="M433.205 135.817C424.109 146.8 415.265 155.501 405.961 162.962H341.4C347.259 156.806 384.082 118.799 411.37 106.949C423.966 101.484 444.089 92.4653 449.367 100.969C454.655 109.494 443.727 123.1 433.205 135.817Z" fill="#007331"/>
<path d="M413.938 131.724C407.058 143.146 398.862 153.679 389.722 162.962H346.513C365.923 147.074 388.329 136.541 410.745 132.294C411.59 132.13 412.434 131.976 413.279 131.834C413.499 131.801 413.718 131.768 413.938 131.724Z" fill="#00591F"/>
<path d="M448.193 104.14C436.562 113.378 424.921 122.617 413.279 131.833C400.145 142.235 387.001 152.626 373.834 162.962H369.961L410.745 132.294L448.193 104.14Z" fill="#71DA63"/>
<path d="M90.2234 135.641C99.3193 146.624 108.163 155.325 117.467 162.786H182.028C176.169 156.631 139.346 118.623 112.058 106.773C99.462 101.309 79.339 92.2898 74.0613 100.793C68.7727 109.319 79.701 122.924 90.2234 135.641Z" fill="#007331"/>
<path d="M109.49 131.548C116.37 142.97 124.566 153.504 133.706 162.786H176.915C157.505 146.898 135.1 136.365 112.683 132.119C111.839 131.954 110.994 131.801 110.149 131.658C109.929 131.625 109.71 131.592 109.49 131.548Z" fill="#00591F"/>
<path d="M75.2355 103.964C86.866 113.203 98.5075 122.441 110.149 131.658C123.283 142.06 136.427 152.45 149.594 162.786H153.467L112.684 132.119L75.2355 103.964Z" fill="#71DA63"/>
<path d="M384.323 85.9915C375.359 117.635 361.951 139.646 342.157 162.962H283.851C285.08 159.615 308.78 95.6031 337.735 67.5582C350.331 55.3571 370.279 35.5742 382.535 41.6089C394.802 47.6546 389.59 67.3936 384.323 85.9915Z" fill="#007331"/>
<path d="M357.014 91.7959C354.655 116.977 346.25 141.533 332.798 162.962H288.777C303.349 134.796 326.072 110.866 353.283 94.0452H353.294C354.271 93.4308 355.247 92.8383 356.246 92.2567C356.498 92.1031 356.761 91.9495 357.014 91.7959Z" fill="#00591F"/>
<path d="M383.072 45.4932C374.141 61.0847 365.199 76.6762 356.245 92.2567C342.673 115.869 329.045 139.448 315.308 162.962H311.018L353.283 94.0452H353.294L383.072 45.4932Z" fill="#71DA63"/>
<path d="M240.74 162.819H179.779C161.795 134.928 150.329 109.044 144.646 73.1759C141.277 51.8569 138.095 29.2761 151.92 23.9656C165.745 18.677 184.661 43.0133 196.632 58.0562C219.421 86.6717 235.386 142.29 240.74 162.819Z" fill="#007331"/>
<path d="M234.596 162.819H189.456C178.287 137.923 172.603 110.372 173.119 82.8096C173.371 83.0071 173.634 83.2046 173.887 83.4021C174.874 84.1701 175.851 84.9382 176.816 85.7391H176.827C201.899 106.038 222.11 132.689 234.596 162.819Z" fill="#00591F"/>
<path d="M211.587 162.819H207.33C196.083 136.387 184.958 109.911 173.887 83.4021C166.206 65.0237 158.537 46.6233 150.878 28.2339L176.816 85.7392H176.827L211.587 162.819Z" fill="#71DA63"/>
<path d="M287.153 162.962H286.703C286.572 162.72 286.55 162.709 286.55 162.709L285.65 162.962H232.709C228.595 138.022 221.77 85.6953 230.087 51.868C234.849 32.5021 242.101 1.38489 257.309 0.0572492C272.516 -1.28136 279.22 21.091 285.2 42.3771C297.324 85.5417 295.36 119.062 287.153 162.962Z" fill="#007331"/>
<path d="M281.052 162.962H239.38C238.722 130.44 246.194 97.7646 260.49 68.5786C261.05 67.4045 261.632 66.2415 262.235 65.0894C262.378 64.7822 262.542 64.4859 262.696 64.1787C277.486 94.6705 283.905 129.211 281.052 162.962Z" fill="#00591F"/>
<path d="M265.231 162.962H261.04L260.491 68.5786L260.107 3.52441C260.831 24.0534 261.544 44.5714 262.236 65.0895C263.344 97.7098 264.375 130.33 265.231 162.962Z" fill="#71DA63"/>
<path d="M0 34.1487C4.06164 94.8949 19.1724 135.957 38.1188 163.723H143.751C135.01 123.303 102.296 70.2396 0 34.1487Z" fill="#A9B022"/>
<path d="M38.1138 163.723H143.746C141.594 153.774 137.984 143.058 132.251 132.021C116.13 125.818 98.3308 124.308 79.8958 122.512C57.0008 120.282 36.865 111.576 16.8482 100.747C14.2019 99.3134 11.7459 98.0348 9.44446 96.9109C16.5092 125.045 26.6009 146.846 38.1138 163.723Z" fill="#979E0A"/>
<path d="M15.6939 54.8315C14.2667 55.9138 57.91 116.048 92.8651 163.723H103.938C66.8777 116.488 17.1746 53.7076 15.6939 54.8315Z" fill="#767A0A"/>
<path d="M220.489 97.3867C200.656 109.352 189.144 125.051 183.328 138.8C179.593 148.356 178.184 156.765 177.94 163.723H225.948C244.704 149.712 263.306 127.59 300.384 83.8638C267.938 77.6018 240.054 85.6299 220.489 97.3867Z" fill="#A9B022"/>
<path d="M244.729 147.125C233.977 146.917 223.743 144.467 210.529 138.503C202.935 135.071 194.414 134.334 186.142 132.895C185.089 134.893 184.155 136.867 183.335 138.806C179.6 148.362 178.191 156.771 177.947 163.729H225.955C232.021 159.197 238.075 153.816 244.735 147.131L244.729 147.125Z" fill="#979E0A"/>
<path d="M223.932 126.336C210.028 137.956 198.622 152.478 190.921 163.723H197.808C204.932 153.138 214.881 140.269 226.899 129.553C250.954 105.177 284.381 90.5479 283.631 90.1376C283.887 88.9542 249.283 102.227 223.932 126.336Z" fill="#767A0A"/>
</svg>
