<svg width="1409" height="282" viewBox="0 0 1409 282" fill="none" xmlns="http://www.w3.org/2000/svg">
<path d="M0 1.88495C62.4386 25.3986 96.3722 56.2164 155.208 95.8967C239.312 152.616 345.4 99.2114 445.582 126.372C504.327 142.297 540.813 162.93 607.078 158.63C655.486 155.487 700.786 142.03 751.572 138.383C851.51 131.202 978.701 212.828 1070.62 174.192C1124.07 151.722 1131.33 127.336 1206.29 127.914C1258.98 128.321 1320.64 149.553 1370.81 140.75C1421.32 131.887 1448.08 101.664 1498.37 89.3743C1554.95 75.5425 1601.47 74.525 1649.63 46.5186C1665.96 37.0189 1681.76 19.8401 1698 0V272H0V1.88495Z" fill="#008C8C"/>
<path d="M1698 11.8849C1635.56 35.3986 1601.63 66.2164 1542.79 105.897C1458.69 162.616 1352.6 109.211 1252.42 136.372C1193.67 152.297 1157.19 172.93 1090.92 168.63C1042.51 165.487 997.214 152.03 946.428 148.383C846.49 141.202 719.299 222.828 627.384 184.192C573.935 161.722 566.665 137.336 491.714 137.914C439.023 138.321 377.365 159.553 327.194 150.75C276.684 141.887 249.919 111.664 199.632 99.3743C143.046 85.5425 96.5313 84.525 48.3718 56.5186C32.0391 47.0189 16.2424 29.8401 0 10V282H1698V11.8849Z" fill="#39B39B"/>
</svg>
