<svg width="14" height="18" viewBox="0 0 14 18" fill="none" xmlns="http://www.w3.org/2000/svg">
<path d="M6.80055 11.1672C8.41326 11.1672 9.70536 9.92022 9.70536 8.37542L9.71508 2.79181C9.71508 1.24701 8.41326 0 6.80055 0C5.18785 0 3.88603 1.24701 3.88603 2.79181V8.37542C3.88603 9.92022 5.18785 11.1672 6.80055 11.1672ZM11.9495 8.37542C11.9495 11.1672 9.48191 13.1215 6.80055 13.1215C4.11919 13.1215 1.65156 11.1672 1.65156 8.37542H0C0 11.5488 2.6425 14.1731 5.82905 14.6291V17.6814H7.77206V14.6291C10.9586 14.1824 13.6011 11.5581 13.6011 8.37542H11.9495Z" fill="white"/>
</svg>
