<svg width="1409" height="292" viewBox="0 0 1409 292" fill="none" xmlns="http://www.w3.org/2000/svg">
<path d="M0 1.88495C62.4386 25.3986 96.3722 56.2164 155.208 95.8967C239.312 152.616 345.4 99.2114 445.582 126.372C504.327 142.297 540.813 162.93 607.078 158.63C655.486 155.487 700.786 142.03 751.572 138.383C851.51 131.202 978.701 212.828 1070.62 174.192C1124.07 151.722 1131.33 127.336 1206.29 127.914C1258.98 128.321 1320.64 149.553 1370.81 140.75C1421.32 131.887 1448.08 101.664 1498.37 89.3743C1554.95 75.5425 1601.47 74.525 1649.63 46.5186C1665.96 37.0189 1681.76 19.8401 1698 0V272H0V1.88495Z" fill="#008C8C"/>
<path d="M1698 21.8849C1635.56 45.3986 1601.63 76.2164 1542.79 115.897C1458.69 172.616 1352.6 119.211 1252.42 146.372C1193.67 162.297 1157.19 182.93 1090.92 178.63C1042.51 175.487 997.214 162.03 946.428 158.383C846.49 151.202 719.299 232.828 627.384 194.192C573.935 171.722 566.665 147.336 491.714 147.914C439.023 148.321 377.365 169.553 327.194 160.75C276.684 151.887 249.919 121.664 199.632 109.374C143.046 95.5425 96.5313 94.525 48.3718 66.5186C32.0391 57.0189 16.2424 39.8401 0 20V292H1698V21.8849Z" fill="#39B39B"/>
</svg>
