<svg width="230" height="99" viewBox="0 0 230 99" fill="none" xmlns="http://www.w3.org/2000/svg">
<path d="M168.596 82.7271C163.056 89.4171 157.669 94.7169 152.002 99.2615H112.677C116.246 95.5122 138.675 72.3613 155.297 65.1434C162.969 61.8151 175.226 56.3215 178.441 61.501C181.662 66.6939 175.006 74.9812 168.596 82.7271V82.7271Z" fill="#007331"/>
<path d="M156.861 80.2343C152.67 87.1915 147.678 93.6075 142.111 99.2615H115.792C127.615 89.5842 141.262 83.1682 154.916 80.5818C155.43 80.4815 155.945 80.388 156.46 80.3011C156.593 80.281 156.727 80.261 156.861 80.2343V80.2343Z" fill="#00591F"/>
<path d="M177.726 63.4325C170.641 69.0598 163.55 74.6871 156.459 80.3011C148.46 86.6368 140.453 92.9659 132.433 99.2615H130.074L154.916 80.5818L177.726 63.4325V63.4325Z" fill="#71DA63"/>
<path d="M-40.3171 82.6202C-34.7766 89.3101 -29.3899 94.61 -23.7225 99.1546H15.6019C12.033 95.4053 -10.396 72.2544 -27.0174 65.0365C-34.6898 61.7082 -46.9469 56.2145 -50.1616 61.3941C-53.3829 66.587 -46.7263 74.8743 -40.3171 82.6202V82.6202Z" fill="#007331"/>
<path d="M-28.5812 80.1273C-24.3908 87.0846 -19.3984 93.5006 -13.8312 99.1546H12.4875C0.66479 89.4772 -12.9825 83.0613 -26.6364 80.4749C-27.151 80.3746 -27.6656 80.281 -28.1802 80.1942C-28.3139 80.1741 -28.4476 80.1541 -28.5812 80.1273V80.1273Z" fill="#00591F"/>
<path d="M138.822 52.3783C133.362 71.6529 125.195 85.0595 113.138 99.2615H77.6233C78.3718 97.2231 92.8077 58.2329 110.445 41.1504C118.117 33.7186 130.267 21.6686 137.733 25.3444C145.205 29.0269 142.03 41.0502 138.822 52.3783Z" fill="#007331"/>
<path d="M122.188 55.9138C120.751 71.2519 115.631 86.2091 107.438 99.2616H80.6243C89.4997 82.1056 103.341 67.5294 119.915 57.2839H119.922C120.517 56.9096 121.112 56.5487 121.72 56.1945C121.873 56.1009 122.034 56.0074 122.188 55.9138V55.9138Z" fill="#00591F"/>
<path d="M138.06 27.7103C132.62 37.2073 127.173 46.7042 121.719 56.1945C113.452 70.5769 105.152 84.9392 96.7842 99.2615H94.171L119.915 57.2838H119.922L138.06 27.7103V27.7103Z" fill="#71DA63"/>
<path d="M51.3642 99.1746H14.2319C3.27804 82.1857 -3.70599 66.4199 -7.16792 44.5722C-9.21969 31.5866 -11.1578 17.8324 -2.73691 14.5977C5.68402 11.3764 17.206 26.1999 24.4974 35.3627C38.3786 52.7927 48.1028 86.6702 51.3642 99.1746V99.1746Z" fill="#007331"/>
<path d="M47.6216 99.1747H20.1265C13.323 84.0103 9.86103 67.2286 10.1751 50.4402C10.3289 50.5605 10.4893 50.6808 10.643 50.8011C11.2445 51.2689 11.8393 51.7367 12.4274 52.2246H12.4341C27.7054 64.5887 40.016 80.8224 47.6216 99.1747Z" fill="#00591F"/>
<path d="M33.6067 99.1747H31.0136C24.1632 83.0747 17.3864 66.9479 10.6429 50.8011C5.96465 39.6066 1.29304 28.3987 -3.37189 17.1976L12.4274 52.2246H12.4341L33.6067 99.1747Z" fill="#71DA63"/>
<path d="M79.6348 99.2615H79.3608C79.2806 99.1145 79.2672 99.1078 79.2672 99.1078L78.7192 99.2615H46.4724C43.9661 84.0704 39.8091 52.1979 44.875 31.5933C47.7756 19.7973 52.1932 0.843548 61.4563 0.034871C70.7193 -0.780489 74.8028 12.8467 78.4452 25.8123C85.8302 52.1043 84.6339 72.5217 79.6348 99.2615Z" fill="#007331"/>
<path d="M75.9186 99.2615H50.5355C50.1345 79.4523 54.6858 59.5495 63.3941 41.772C63.735 41.0569 64.0892 40.3484 64.4568 39.6467C64.5437 39.4596 64.6439 39.2791 64.7375 39.092C73.7465 57.6648 77.6563 78.7038 75.9186 99.2615Z" fill="#00591F"/>
<path d="M66.2816 99.2615H63.7286L63.3944 41.7719L63.1605 2.14679C63.6016 14.6512 64.036 27.1489 64.4571 39.6467C65.1321 59.516 65.7603 79.3854 66.2816 99.2615Z" fill="#71DA63"/>
<path d="M46.3125 20.8003C48.7865 57.8014 57.9906 82.813 69.531 99.7252H133.873C128.548 75.1048 108.622 42.7836 46.3125 20.8003V20.8003Z" fill="#A9B022"/>
<path d="M69.5281 99.7252H133.87C132.559 93.6652 130.36 87.138 126.868 80.4151C117.048 76.6371 106.207 75.7171 94.9779 74.6231C81.0323 73.2648 68.7674 67.9619 56.575 61.3658C54.9631 60.4928 53.4671 59.714 52.0653 59.0294C56.3685 76.1662 62.5155 89.4453 69.5281 99.7252Z" fill="#979E0A"/>
<path d="M55.8717 33.3985C55.0024 34.0577 81.586 70.6858 102.877 99.7252H109.622C87.0483 70.9538 56.7737 32.7139 55.8717 33.3985V33.3985Z" fill="#767A0A"/>
<path d="M180.615 59.3191C168.534 66.6071 161.522 76.1698 157.979 84.5444C155.704 90.3653 154.846 95.4872 154.698 99.7252H183.94C195.364 91.1912 206.695 77.7165 229.279 51.0822C209.516 47.268 192.532 52.158 180.615 59.3191V59.3191Z" fill="#A9B022"/>
<path d="M195.379 89.6155C188.83 89.4887 182.597 87.9964 174.548 84.3633C169.922 82.2732 164.732 81.8241 159.693 80.9475C159.052 82.1646 158.483 83.3672 157.984 84.548C155.709 90.3689 154.85 95.4908 154.702 99.7288H183.944C187.639 96.9687 191.326 93.6905 195.383 89.6191L195.379 89.6155Z" fill="#979E0A"/>
<path d="M182.712 76.9522C174.243 84.0301 167.296 92.8756 162.605 99.7252H166.799C171.139 93.2776 177.199 85.4391 184.519 78.9118C199.171 64.0643 219.532 55.1536 219.075 54.9037C219.231 54.1828 198.153 62.2677 182.712 76.9522V76.9522Z" fill="#767A0A"/>
</svg>
