<svg width="805" height="157" viewBox="0 0 805 157" fill="none" xmlns="http://www.w3.org/2000/svg">
<path d="M623.683 140.727C629.223 147.417 634.61 152.717 640.278 157.262H679.602C676.033 153.512 653.604 130.361 636.983 123.143C629.31 119.815 617.053 114.321 613.839 119.501C610.617 124.694 617.274 132.981 623.683 140.727Z" fill="#007331"/>
<path d="M635.419 138.234C639.609 145.192 644.601 151.607 650.169 157.262H676.487C664.665 147.584 651.017 141.168 637.363 138.582C636.849 138.482 636.334 138.388 635.82 138.301C635.686 138.281 635.552 138.261 635.419 138.234Z" fill="#00591F"/>
<path d="M614.554 121.432C621.638 127.06 628.729 132.687 635.82 138.301C643.82 144.637 651.826 150.966 659.846 157.262H662.205L637.364 138.582L614.554 121.432Z" fill="#71DA63"/>
<path d="M832.596 140.62C827.056 147.31 821.669 152.61 816.002 157.155H776.677C780.246 153.405 802.675 130.254 819.297 123.036C826.969 119.708 839.226 114.215 842.441 119.394C845.662 124.587 839.006 132.874 832.596 140.62Z" fill="#007331"/>
<path d="M820.861 138.127C816.67 145.085 811.678 151.501 806.111 157.155H779.792C791.615 147.477 805.262 141.061 818.916 138.475C819.43 138.375 819.945 138.281 820.46 138.194C820.593 138.174 820.727 138.154 820.861 138.127Z" fill="#00591F"/>
<path d="M841.726 121.326C834.641 126.953 827.55 132.58 820.459 138.194C812.46 144.53 804.453 150.859 796.433 157.155H794.074L818.916 138.475L841.726 121.326Z" fill="#71DA63"/>
<path d="M653.457 110.378C658.917 129.653 667.084 143.06 679.141 157.262H714.656C713.907 155.223 699.472 116.233 681.834 99.1504C674.162 91.7186 662.012 79.6686 654.547 83.3444C647.075 87.0269 650.249 99.0502 653.457 110.378Z" fill="#007331"/>
<path d="M670.092 113.914C671.529 129.252 676.648 144.209 684.842 157.262H711.655C702.78 140.106 688.939 125.529 672.364 115.284H672.357C671.763 114.91 671.168 114.549 670.56 114.195C670.406 114.101 670.245 114.007 670.092 113.914Z" fill="#00591F"/>
<path d="M654.219 85.7103C659.659 95.2073 665.106 104.704 670.56 114.194C678.827 128.577 687.128 142.939 695.495 157.262H698.108L672.364 115.284H672.357L654.219 85.7103Z" fill="#71DA63"/>
<path d="M740.915 157.175H778.047C789.001 140.186 795.985 124.42 799.447 102.572C801.499 89.5866 803.437 75.8324 795.016 72.5977C786.595 69.3764 775.073 84.1999 767.782 93.3627C753.901 110.793 744.177 144.67 740.915 157.175Z" fill="#007331"/>
<path d="M744.658 157.175H772.153C778.956 142.01 782.418 125.229 782.104 108.44C781.95 108.56 781.79 108.681 781.636 108.801C781.035 109.269 780.44 109.737 779.852 110.225H779.845C764.574 122.589 752.263 138.822 744.658 157.175Z" fill="#00591F"/>
<path d="M758.673 157.175H761.266C768.116 141.075 774.893 124.948 781.637 108.801C786.315 97.6066 790.986 86.3987 795.651 75.1976L779.852 110.225H779.845L758.673 157.175Z" fill="#71DA63"/>
<path d="M712.645 157.262H712.919C712.999 157.114 713.012 157.108 713.012 157.108L713.56 157.262H745.807C748.313 142.07 752.47 110.198 747.404 89.5933C744.504 77.7973 740.086 58.8435 730.823 58.0349C721.56 57.2195 717.477 70.8467 713.834 83.8123C706.449 110.104 707.645 130.522 712.645 157.262Z" fill="#007331"/>
<path d="M716.361 157.262H741.744C742.145 137.452 737.594 117.549 728.885 99.772C728.544 99.0569 728.19 98.3484 727.823 97.6467C727.736 97.4596 727.636 97.2791 727.542 97.092C718.533 115.665 714.623 136.704 716.361 157.262Z" fill="#00591F"/>
<path d="M725.998 157.262H728.551L728.885 99.7719L729.119 60.1468C728.678 72.6512 728.243 85.1489 727.822 97.6467C727.147 117.516 726.519 137.385 725.998 157.262Z" fill="#71DA63"/>
<path d="M745.967 78.8003C743.493 115.801 734.289 140.813 722.748 157.725H658.406C663.731 133.105 683.657 100.784 745.967 78.8003Z" fill="#A9B022"/>
<path d="M722.751 157.725H658.41C659.721 151.665 661.919 145.138 665.411 138.415C675.231 134.637 686.073 133.717 697.301 132.623C711.247 131.265 723.512 125.962 735.704 119.366C737.316 118.493 738.812 117.714 740.214 117.029C735.911 134.166 729.764 147.445 722.751 157.725Z" fill="#979E0A"/>
<path d="M736.407 91.3985C737.277 92.0577 710.693 128.686 689.402 157.725H682.657C705.231 128.954 735.506 90.7139 736.407 91.3985Z" fill="#767A0A"/>
<path d="M611.665 117.319C623.745 124.607 630.757 134.17 634.3 142.544C636.575 148.365 637.433 153.487 637.582 157.725H608.339C596.915 149.191 585.585 135.716 563 109.082C582.763 105.268 599.748 110.158 611.665 117.319Z" fill="#A9B022"/>
<path d="M596.9 147.616C603.449 147.489 609.683 145.996 617.731 142.363C622.357 140.273 627.548 139.824 632.586 138.948C633.227 140.165 633.796 141.367 634.296 142.548C636.571 148.369 637.429 153.491 637.578 157.729H608.335C604.641 154.969 600.953 151.691 596.896 147.619L596.9 147.616Z" fill="#979E0A"/>
<path d="M609.568 134.952C618.036 142.03 624.984 150.876 629.675 157.725H625.48C621.141 151.278 615.081 143.439 607.76 136.912C593.108 122.064 572.748 113.154 573.204 112.904C573.048 112.183 594.126 120.268 609.568 134.952Z" fill="#767A0A"/>
<path d="M433.205 135.816C424.109 146.8 415.265 155.501 405.961 162.962H341.4C347.259 156.806 384.082 118.799 411.37 106.949C423.966 101.484 444.089 92.4652 449.367 100.969C454.655 109.494 443.727 123.1 433.205 135.816Z" fill="#007331"/>
<path d="M413.938 131.724C407.058 143.146 398.862 153.679 389.722 162.962H346.513C365.923 147.074 388.329 136.541 410.745 132.294C411.59 132.13 412.434 131.976 413.279 131.834C413.499 131.801 413.718 131.768 413.938 131.724Z" fill="#00591F"/>
<path d="M448.193 104.14C436.562 113.378 424.921 122.617 413.279 131.834C400.145 142.235 387.001 152.626 373.834 162.962H369.961L410.745 132.294L448.193 104.14Z" fill="#71DA63"/>
<path d="M90.2234 135.641C99.3193 146.624 108.163 155.325 117.467 162.786H182.028C176.169 156.631 139.346 118.623 112.058 106.773C99.462 101.309 79.339 92.2897 74.0613 100.793C68.7727 109.319 79.701 122.924 90.2234 135.641Z" fill="#007331"/>
<path d="M109.49 131.548C116.37 142.97 124.566 153.504 133.706 162.786H176.915C157.505 146.898 135.1 136.365 112.683 132.119C111.839 131.954 110.994 131.801 110.149 131.658C109.929 131.625 109.71 131.592 109.49 131.548Z" fill="#00591F"/>
<path d="M75.2355 103.964C86.866 113.203 98.5075 122.441 110.149 131.658C123.283 142.06 136.427 152.45 149.594 162.786H153.467L112.684 132.119L75.2355 103.964Z" fill="#71DA63"/>
<path d="M384.323 85.9916C375.359 117.635 361.951 139.646 342.157 162.962H283.851C285.08 159.615 308.78 95.6032 337.735 67.5583C350.331 55.3572 370.279 35.5743 382.535 41.609C394.802 47.6547 389.59 67.3937 384.323 85.9916Z" fill="#007331"/>
<path d="M357.014 91.7959C354.655 116.977 346.25 141.533 332.798 162.962H288.777C303.349 134.796 326.072 110.866 353.283 94.0452H353.294C354.271 93.4308 355.247 92.8383 356.246 92.2567C356.498 92.1031 356.761 91.9495 357.014 91.7959Z" fill="#00591F"/>
<path d="M383.072 45.4932C374.141 61.0847 365.199 76.6762 356.245 92.2568C342.673 115.869 329.045 139.448 315.308 162.962H311.018L353.283 94.0452H353.294L383.072 45.4932Z" fill="#71DA63"/>
<path d="M240.74 162.819H179.779C161.795 134.928 150.329 109.044 144.646 73.1761C141.277 51.8571 138.095 29.2762 151.92 23.9657C165.745 18.6771 184.661 43.0135 196.632 58.0564C219.421 86.6719 235.386 142.29 240.74 162.819Z" fill="#007331"/>
<path d="M234.596 162.819H189.456C178.287 137.923 172.603 110.372 173.119 82.8097C173.371 83.0072 173.634 83.2047 173.887 83.4022C174.874 84.1702 175.851 84.9383 176.816 85.7393H176.827C201.899 106.038 222.11 132.689 234.596 162.819Z" fill="#00591F"/>
<path d="M211.587 162.819H207.33C196.083 136.387 184.958 109.911 173.887 83.4021C166.206 65.0237 158.537 46.6233 150.878 28.2339L176.816 85.7392H176.827L211.587 162.819Z" fill="#71DA63"/>
<path d="M287.153 162.962H286.703C286.572 162.72 286.55 162.709 286.55 162.709L285.65 162.962H232.709C228.595 138.022 221.77 85.6953 230.087 51.868C234.849 32.5021 242.101 1.38489 257.309 0.0572492C272.516 -1.28136 279.22 21.091 285.2 42.3771C297.324 85.5417 295.36 119.062 287.153 162.962Z" fill="#007331"/>
<path d="M281.052 162.962H239.38C238.722 130.44 246.194 97.7648 260.49 68.5787C261.05 67.4047 261.632 66.2416 262.235 65.0895C262.378 64.7823 262.542 64.4861 262.696 64.1788C277.486 94.6706 283.905 129.211 281.052 162.962Z" fill="#00591F"/>
<path d="M265.231 162.962H261.04L260.491 68.5788L260.107 3.52454C260.831 24.0535 261.544 44.5716 262.236 65.0896C263.344 97.71 264.375 130.33 265.231 162.962Z" fill="#71DA63"/>
<path d="M0 34.1487C4.06164 94.895 19.1724 135.957 38.1188 163.723H143.751C135.01 123.303 102.296 70.2397 0 34.1487Z" fill="#A9B022"/>
<path d="M38.1138 163.723H143.746C141.594 153.774 137.984 143.058 132.251 132.021C116.13 125.818 98.3308 124.308 79.8958 122.512C57.0008 120.282 36.865 111.576 16.8482 100.747C14.2019 99.3134 11.7459 98.0349 9.44446 96.9109C16.5092 125.045 26.6009 146.846 38.1138 163.723Z" fill="#979E0A"/>
<path d="M15.6939 54.8317C14.2667 55.914 57.91 116.048 92.8651 163.723H103.938C66.8777 116.488 17.1746 53.7077 15.6939 54.8317Z" fill="#767A0A"/>
<path d="M220.489 97.3867C200.656 109.352 189.144 125.051 183.328 138.8C179.593 148.356 178.184 156.765 177.94 163.723H225.948C244.704 149.712 263.306 127.59 300.384 83.8638C267.938 77.6018 240.054 85.6299 220.489 97.3867Z" fill="#A9B022"/>
<path d="M244.729 147.125C233.977 146.917 223.743 144.467 210.529 138.503C202.935 135.071 194.414 134.334 186.142 132.895C185.089 134.893 184.155 136.867 183.335 138.806C179.6 148.362 178.191 156.771 177.947 163.729H225.955C232.021 159.197 238.075 153.816 244.735 147.131L244.729 147.125Z" fill="#979E0A"/>
<path d="M223.932 126.336C210.028 137.956 198.622 152.478 190.921 163.723H197.808C204.932 153.138 214.881 140.269 226.899 129.553C250.954 105.177 284.381 90.5479 283.631 90.1376C283.887 88.9542 249.283 102.227 223.932 126.336Z" fill="#767A0A"/>
</svg>
